<svg xmlns="http://www.w3.org/2000/svg" height="512" viewBox="0 0 52 60" width="512"><g id="037---Language-Book"><path id="Shape" d="m47 0h-42c-2.76142375 0-5 2.23857625-5 5v50c0 2.7614237 2.23857625 5 5 5h42c2.7614237 0 5-2.2385763 5-5v-50c0-1.32608245-.5267842-2.59785201-1.4644661-3.53553391-.9376819-.93768189-2.2094515-1.46446609-3.5355339-1.46446609zm3 55c0 1.6568542-1.3431458 3-3 3h-39v-6c0-.5522847-.44771525-1-1-1s-1 .4477153-1 1v6h-1c-1.65685425 0-3-1.3431458-3-3v-50c0-1.65685425 1.34314575-3 3-3h1v46c0 .5522847.44771525 1 1 1s1-.4477153 1-1v-46h39c1.6568542 0 3 1.34314575 3 3z"></path><path id="Shape" d="m28 21v5c0 .5522847.4477153 1 1 1s1-.4477153 1-1v-7c-.0000001-3.3137084-2.6862916-5.9999999-6-5.9999999s-5.9999999 2.6862915-6 5.9999999v7c0 .5522847.4477153 1 1 1s1-.4477153 1-1v-5zm-4-6c2.209139 0 4 1.790861 4 4h-8c0-2.209139 1.790861-4 4-4z"></path><path id="Shape" d="m35.71 27.11c6.07-8.6-.59-20.11-11.71-20.11-7.72 0-14 5.83-14 13 0 6.63 5.38 12.11 12.29 12.89-6.03 8.56.54 20.11 11.71 20.11 7.72 0 14-5.83 14-13 0-6.63-5.38-12.11-12.29-12.89zm-23.71-7.11c0-6.07 5.38-11 12-11s12 4.93 12 11-5.38 11-12 11-12-4.93-12-11zm22 31c-10.14 0-15.71-10.9-9.21-18 3.4782576-.1670418 6.7783674-1.5879718 9.29-4 6.58 0 11.92 5 11.92 11s-5.38 11-12 11z"></path><path id="Shape" d="m40 35h-5v-2c0-.5522847-.4477153-1-1-1s-1 .4477153-1 1v2h-5c-.5522847 0-1 .4477153-1 1s.4477153 1 1 1h8v2c-.0023473 1.8286657-.720198 3.5838107-2 4.89-1.0641283-1.0871114-1.7451534-2.491287-1.94-4-.0274977-.2678397-.1618403-.5132745-.372637-.6807827-.2107967-.1675081-.480235-.2429348-.747363-.2092173-.2642122.0324346-.5045886.1688737-.6678869.3790968-.1632982.2102231-.2360399.4768785-.2021131.7409032.2341674 1.8694646 1.0491252 3.618301 2.33 5-1.0374268.584251-2.2093926.8875834-3.4.88-.5522847 0-1 .4477153-1 1s.4477153 1 1 1c1.782266.0021411 3.5241238-.5308674 5-1.53 1.4756074.9996947 3.2176423 1.5327574 5 1.53.5522847 0 1-.4477153 1-1s-.4477153-1-1-1c-1.1935699-.0040678-2.3666824-.3102467-3.41-.89 1.5443557-1.6603442 2.405058-3.8424566 2.41-6.11v-2h2c.5522847 0 1-.4477153 1-1s-.4477153-1-1-1z"></path><path id="Shape" d="m47 4h-1c-.5522847 0-1 .44771525-1 1s.4477153 1 1 1h1c.5522847 0 1-.44771525 1-1s-.4477153-1-1-1z"></path><path id="Shape" d="m33 6h9c.5522847 0 1-.44771525 1-1s-.4477153-1-1-1h-9c-.5522847 0-1 .44771525-1 1s.4477153 1 1 1z"></path><path id="Shape" d="m12 54h-1c-.5522847 0-1 .4477153-1 1s.4477153 1 1 1h1c.5522847 0 1-.4477153 1-1s-.4477153-1-1-1z"></path><path id="Shape" d="m25 54h-9c-.5522847 0-1 .4477153-1 1s.4477153 1 1 1h9c.5522847 0 1-.4477153 1-1s-.4477153-1-1-1z"></path></g></svg>