<svg xmlns="http://www.w3.org/2000/svg" xmlns:xlink="http://www.w3.org/1999/xlink" id="Capa_1" x="0px" y="0px" viewBox="0 0 512 512" style="enable-background:new 0 0 512 512;" xml:space="preserve">
<g>
	<g>
		<g>
			<path d="M469.333,0H42.667C19.114,0.028,0.028,19.114,0,42.667v426.667C0.028,492.886,19.114,511.972,42.667,512h426.667     c23.552-0.028,42.638-19.114,42.667-42.667V42.667C511.972,19.114,492.886,0.028,469.333,0z M494.933,469.333     c0,14.138-11.461,25.6-25.6,25.6H42.667c-14.138,0-25.6-11.461-25.6-25.6v-384h477.867V469.333z M494.933,68.267H17.067v-25.6     c0-14.138,11.462-25.6,25.6-25.6h426.667c14.138,0,25.6,11.462,25.6,25.6V68.267z"></path>
			<path d="M59.733,34.133H51.2c-4.713,0-8.533,3.82-8.533,8.533S46.487,51.2,51.2,51.2h8.533c4.713,0,8.533-3.82,8.533-8.533     S64.446,34.133,59.733,34.133z"></path>
			<path d="M98.645,35.584c-0.477-0.322-0.993-0.58-1.536-0.768c-0.511-0.259-1.062-0.432-1.63-0.512     c-2.781-0.507-5.637,0.35-7.68,2.304c-3.3,3.365-3.3,8.752,0,12.117c1.637,1.561,3.805,2.445,6.067,2.475     c0.541-0.014,1.081-0.071,1.613-0.171c0.568-0.08,1.119-0.253,1.63-0.512c0.543-0.188,1.06-0.446,1.536-0.768     c0.445-0.317,0.873-0.659,1.28-1.024c0.771-0.816,1.38-1.772,1.792-2.816c0.437-1.026,0.669-2.128,0.683-3.243     c-0.033-2.259-0.917-4.422-2.475-6.059C99.518,36.243,99.091,35.901,98.645,35.584z"></path>
			<path d="M124.757,34.816c-1.044,0.412-2,1.021-2.816,1.792c-3.3,3.365-3.3,8.752,0,12.117c0.816,0.771,1.772,1.38,2.816,1.792     c1.026,0.437,2.128,0.669,3.243,0.683c2.262-0.017,4.432-0.903,6.059-2.475c3.3-3.365,3.3-8.752,0-12.117     C131.605,34.187,127.935,33.48,124.757,34.816z"></path>
			<path d="M460.8,34.133H170.667c-4.713,0-8.533,3.82-8.533,8.533s3.82,8.533,8.533,8.533H460.8c4.713,0,8.533-3.82,8.533-8.533     S465.513,34.133,460.8,34.133z"></path>
			<path d="M59.102,230.4h86.596c9.073-0.009,16.426-7.362,16.435-16.435v-86.596c-0.009-9.073-7.362-16.426-16.435-16.435H59.102     c-9.073,0.009-16.426,7.362-16.435,16.435v86.596C42.676,223.038,50.029,230.391,59.102,230.4z M59.733,128h85.333v85.333H59.733     V128z"></path>
			<path d="M212.702,230.4h86.596c9.073-0.009,16.426-7.362,16.435-16.435v-86.596c-0.009-9.073-7.362-16.426-16.435-16.435h-86.596     c-9.073,0.009-16.426,7.362-16.435,16.435v86.596C196.276,223.038,203.629,230.391,212.702,230.4z M213.333,128h85.333v85.333     h-85.333V128z"></path>
			<path d="M366.302,230.4h86.596c9.073-0.009,16.426-7.362,16.435-16.435v-86.596c-0.009-9.073-7.362-16.426-16.435-16.435h-86.596     c-9.073,0.009-16.426,7.362-16.435,16.435v86.596C349.876,223.038,357.229,230.391,366.302,230.4z M366.933,128h85.333v85.333     h-85.333V128z"></path>
			<path d="M59.733,264.533h85.333c4.713,0,8.533-3.82,8.533-8.533s-3.821-8.533-8.533-8.533H59.733     c-4.713,0-8.533,3.82-8.533,8.533S55.021,264.533,59.733,264.533z"></path>
			<path d="M59.733,298.667h85.333c4.713,0,8.533-3.82,8.533-8.533s-3.821-8.533-8.533-8.533H59.733     c-4.713,0-8.533,3.82-8.533,8.533S55.021,298.667,59.733,298.667z"></path>
			<path d="M59.733,332.8h85.333c4.713,0,8.533-3.82,8.533-8.533s-3.821-8.533-8.533-8.533H59.733c-4.713,0-8.533,3.82-8.533,8.533     S55.021,332.8,59.733,332.8z"></path>
			<path d="M213.333,264.533h85.333c4.713,0,8.533-3.82,8.533-8.533s-3.82-8.533-8.533-8.533h-85.333     c-4.713,0-8.533,3.82-8.533,8.533S208.621,264.533,213.333,264.533z"></path>
			<path d="M213.333,298.667h85.333c4.713,0,8.533-3.82,8.533-8.533s-3.82-8.533-8.533-8.533h-85.333     c-4.713,0-8.533,3.82-8.533,8.533S208.621,298.667,213.333,298.667z"></path>
			<path d="M213.333,332.8h85.333c4.713,0,8.533-3.82,8.533-8.533s-3.82-8.533-8.533-8.533h-85.333c-4.713,0-8.533,3.82-8.533,8.533     S208.621,332.8,213.333,332.8z"></path>
			<path d="M366.933,264.533h85.333c4.713,0,8.533-3.82,8.533-8.533s-3.821-8.533-8.533-8.533h-85.333     c-4.713,0-8.533,3.82-8.533,8.533S362.221,264.533,366.933,264.533z"></path>
			<path d="M366.933,298.667h85.333c4.713,0,8.533-3.82,8.533-8.533s-3.821-8.533-8.533-8.533h-85.333     c-4.713,0-8.533,3.82-8.533,8.533S362.221,298.667,366.933,298.667z"></path>
			<path d="M366.933,332.8h85.333c4.713,0,8.533-3.82,8.533-8.533s-3.821-8.533-8.533-8.533h-85.333     c-4.713,0-8.533,3.82-8.533,8.533S362.221,332.8,366.933,332.8z"></path>
			<path d="M426.667,366.933H162.133c-0.515,0.055-1.023,0.157-1.519,0.307c-0.501,0.031-0.998,0.108-1.485,0.23l-68.267,25.6     c-3.33,1.252-5.533,4.438-5.53,7.996v17.067c-0.004,3.557,2.2,6.744,5.53,7.996l68.267,25.6c0.963,0.352,1.979,0.534,3.004,0.538     h264.533c23.564,0,42.667-19.102,42.667-42.667S450.231,366.933,426.667,366.933z M153.6,431.42l-51.2-19.2v-5.239l51.2-19.2     V431.42z M375.467,435.2h-204.8V384h204.8V435.2z M426.667,435.2h-34.133V384h34.133c14.138,0,25.6,11.462,25.6,25.6     S440.805,435.2,426.667,435.2z"></path>
			<path d="M51.2,418.133h17.067c4.713,0,8.533-3.82,8.533-8.533s-3.82-8.533-8.533-8.533H51.2c-4.713,0-8.533,3.82-8.533,8.533     S46.487,418.133,51.2,418.133z"></path>
		</g>
	</g>
</g>
<g>
</g>
<g>
</g>
<g>
</g>
<g>
</g>
<g>
</g>
<g>
</g>
<g>
</g>
<g>
</g>
<g>
</g>
<g>
</g>
<g>
</g>
<g>
</g>
<g>
</g>
<g>
</g>
<g>
</g>
</svg>